<?xml version="1.0" encoding="UTF-8"?>
<svg id="Capa_2" xmlns="http://www.w3.org/2000/svg" viewBox="0 0 2226.89 1887.18">
  <defs>
    <style>
      .cls-1 {
        fill: #fff;
      }
    </style>
  </defs>
  <g id="IDENTIDAD_4">
    <g>
      <g>
        <path class="cls-1" d="M345.2,1680.21l-153.34,30.57-10.66-15.94,87-129.71,9.63,14.41-27.63,40.33,37.86,56.59,47.96-9.97,9.18,13.72ZM273.65,1679.4l-31.66-47.33-42.99,63.02,74.64-15.69Z"/>
        <path class="cls-1" d="M239.64,1511.26l-134.28,53.19-8.22-20.72,77.19-83.61-113.44-7.89-8.19-20.71,134.28-53.19,5.53,14-117.38,46.5,128.62,9.86-86.8,95.18,117.2-46.42,5.49,13.8Z"/>
        <path class="cls-1" d="M171.07,1319.91l-152.26-35.42-3.13-18.93,132.76-82.23,2.84,17.09-41.82,25.33,11.13,67.18,47.78,10.7,2.71,16.28ZM106.23,1289.67l-9.29-56.18-65.17,39.66,74.46,16.52Z"/>
        <path class="cls-1" d="M145.57,1108.8L0,1134.11l.65-16.09,120.16-19.71-117.72-40.49.63-15.46,120.18-30.87-117.74-29.53.6-15.46,143.06,36.95-.65,16.09-123.72,31.56,120.76,41.63-.65,16.07Z"/>
        <path class="cls-1" d="M174.11,868.42l-126.18-32.04-12.85,50.59-13.79-3.5,29.6-116.59,13.81,3.5-12.85,50.6,126.18,32.05-3.92,15.39Z"/>
        <path class="cls-1" d="M198.14,779.04l-108.43-112.61,7.68-17.59,156.14,3.32-6.94,15.88-48.87-1.52-27.22,62.4,34.25,34.99-6.6,15.12ZM160.23,718.37l22.77-52.19-76.23-2.22,53.46,54.4Z"/>
        <path class="cls-1" d="M295.3,585.21l-49.32-32.04-103.05,1.46,10.12-15.57,85.79-.63-34.43-78.45,9.78-15.06,40.97,95.26,48.78,31.69-8.64,13.33Z"/>
        <path class="cls-1" d="M490.82,366.66c-7.95,6.77-16.63,11.64-25.99,14.64-9.36,3-18.87,4.12-28.52,3.39-9.65-.74-18.83-3.31-27.56-7.74-8.71-4.42-16.46-10.61-23.22-18.58-6.76-7.97-11.64-16.6-14.57-25.93-2.96-9.31-4.01-18.79-3.18-28.43.83-9.64,3.49-18.84,7.95-27.6,4.48-8.77,10.7-16.52,18.67-23.3,5.75-4.89,11.89-8.89,18.38-11.97,6.49-3.08,13.16-5.23,19.99-6.43,6.83-1.2,13.68-1.37,20.55-.53l-.81,15.31c-8.49-1.28-17.02-.58-25.57,2.08-8.57,2.68-16.25,6.91-23.08,12.69-6.38,5.43-11.33,11.62-14.82,18.55-3.49,6.94-5.51,14.19-6.02,21.76-.51,7.57.43,15.07,2.87,22.48,2.42,7.42,6.38,14.38,11.91,20.88,5.42,6.4,11.62,11.42,18.6,15.06,6.96,3.65,14.26,5.8,21.87,6.47,7.61.67,15.13-.18,22.59-2.55,7.48-2.37,14.4-6.27,20.8-11.7,6.81-5.79,12.18-12.65,16.1-20.57,3.92-7.93,5.96-16.03,6.13-24.31l14.82,1.5c-.47,6.9-1.81,13.63-4.07,20.24-2.24,6.59-5.37,12.83-9.43,18.69-4.03,5.88-8.82,11.16-14.4,15.88Z"/>
        <path class="cls-1" d="M590.45,290.1l-70.77-125.91,90.11-50.64,6.87,12.22-76.25,42.86,24.76,44.07,49.81-28.01,6.78,12.06-49.84,28,25.48,45.34,76.99-43.27,6.87,12.22-90.83,51.06Z"/>
        <path class="cls-1" d="M742.98,211.56l-45.25-137.16,15.09-4.97,119.22,84.09-36.72-111.3,14.31-4.71,45.22,137.16-13.32,4.4-121.93-86.45,37.68,114.24-14.31,4.71Z"/>
        <path class="cls-1" d="M969.26,153.95l-16.21-129.18-51.81,6.5-1.77-14.13,119.35-14.98,1.77,14.13-51.78,6.49,16.21,129.19-15.76,1.97Z"/>
        <path class="cls-1" d="M1100.94,144.2L1109.18,0l61.79,3.53c9.47.54,17.62,2.73,24.43,6.56,6.81,3.84,12,8.96,15.56,15.36,3.56,6.4,5.1,13.79,4.61,22.16-.54,9.48-3.78,17.45-9.72,23.93-5.96,6.48-13.68,10.84-23.17,13.04l28.68,65.91-17.51-1-27.36-63.76-46.14-2.63-3.54,62-15.87-.91ZM1121.12,69.71l44.91,2.56c9.74.56,17.69-1.47,23.8-6.08,6.11-4.61,9.43-11.1,9.9-19.49.47-8.24-2.08-14.99-7.63-20.27-5.55-5.27-13.21-8.19-22.95-8.74l-44.91-2.56-3.11,54.58Z"/>
        <path class="cls-1" d="M1342.69,180.06c-10.1-2.71-19.01-7.05-26.73-13.04-7.72-5.99-13.99-13.15-18.81-21.49-4.81-8.34-7.88-17.35-9.2-27.03-1.32-9.67-.63-19.57,2.08-29.66s7.05-19.01,13.03-26.73c6-7.72,13.16-13.99,21.49-18.81,8.35-4.81,17.35-7.88,27.05-9.2,9.67-1.32,19.57-.63,29.66,2.08,9.96,2.68,18.81,7.01,26.53,12.99,7.72,5.99,13.99,13.15,18.81,21.49,4.81,8.34,7.88,17.35,9.2,27.03,1.32,9.68.63,19.58-2.08,29.66-2.71,10.11-7.05,19.02-13.03,26.73-6,7.72-13.16,13.99-21.49,18.81-8.35,4.81-17.35,7.88-27.05,9.2-9.67,1.32-19.5.65-29.46-2.03ZM1346.48,165.91c7.97,2.14,15.74,2.65,23.31,1.54,7.57-1.1,14.6-3.59,21.11-7.48,6.54-3.87,12.16-8.94,16.9-15.22,4.75-6.28,8.22-13.47,10.39-21.57,2.19-8.24,2.82-16.22,1.84-23.97-1.01-7.75-3.34-14.92-7.05-21.54-3.72-6.63-8.55-12.3-14.55-17.04-6-4.75-12.96-8.18-20.93-10.32-7.97-2.14-15.78-2.66-23.4-1.57-7.63,1.09-14.71,3.57-21.22,7.44-6.54,3.87-12.16,8.92-16.88,15.12-4.72,6.21-8.19,13.43-10.41,21.67-2.17,8.1-2.78,16.06-1.79,23.87.96,7.81,3.29,15.02,7.01,21.65,3.69,6.62,8.6,12.3,14.64,17.06,6.07,4.76,13.07,8.21,21.04,10.34Z"/>
        <path class="cls-1" d="M1561.67,265.68l76.86-122.28,87.52,55.01-7.48,11.88-74.06-46.56-27.45,43.68,48.56,30.52-7.34,11.71-48.58-30.52-34.57,55.02-13.46-8.45Z"/>
        <path class="cls-1" d="M1702.29,363.66l93.09-110.43,12.13,10.24-93.09,110.43-12.13-10.24Z"/>
        <path class="cls-1" d="M1772.39,426.36l107.46-96.5,10.61,11.82-96.87,86.99,57.49,64.02-10.59,9.52-68.11-75.84Z"/>
        <path class="cls-1" d="M1906.94,604.04c-5.44-8.93-8.87-18.24-10.32-27.9-1.46-9.67-1.03-19.18,1.25-28.53,2.28-9.35,6.29-17.99,12.02-25.89,5.73-7.91,13.07-14.59,22.01-20.02,8.93-5.43,18.25-8.87,27.9-10.31,9.67-1.44,19.19-1.03,28.55,1.25,9.34,2.28,17.98,6.29,25.88,12.03,7.93,5.73,14.6,13.06,20.02,22.01,5.35,8.81,8.75,18.06,10.21,27.72,1.43,9.66,1.03,19.18-1.25,28.52-2.28,9.36-6.29,17.99-12.04,25.9-5.73,7.91-13.05,14.59-21.99,20.02-8.96,5.43-18.25,8.87-27.9,10.31-9.67,1.44-19.19,1.02-28.55-1.26-9.36-2.28-17.98-6.29-25.9-12.02-7.9-5.74-14.53-13.01-19.88-21.83ZM1919.46,596.42c4.28,7.05,9.54,12.79,15.76,17.22,6.22,4.43,13.05,7.49,20.44,9.2,7.39,1.7,14.98,1.93,22.75.66,7.75-1.25,15.22-4.06,22.39-8.42,7.3-4.43,13.25-9.78,17.89-16.06,4.63-6.28,7.9-13.09,9.81-20.43,1.88-7.35,2.31-14.81,1.25-22.38-1.05-7.57-3.74-14.88-8.02-21.93-4.3-7.05-9.56-12.82-15.83-17.31-6.27-4.48-13.1-7.58-20.49-9.28-7.39-1.7-14.96-1.95-22.66-.72-7.7,1.22-15.2,4.04-22.5,8.47-7.16,4.35-13.1,9.69-17.8,16.01-4.68,6.31-7.97,13.14-9.87,20.49-1.9,7.34-2.31,14.83-1.21,22.46,1.1,7.63,3.78,14.97,8.08,22.02Z"/>
        <path class="cls-1" d="M1989,775.63c-3.85-10.75-5.4-21.82-4.57-33.21.78-11.4,3.92-22.32,9.38-32.75l13.86,6.21c-5.01,9.68-7.95,19.19-8.84,28.49-.9,9.31.22,18.37,3.4,27.17,2.55,7.12,5.96,13.03,10.19,17.72,4.25,4.69,8.96,7.85,14.15,9.49,5.19,1.65,10.39,1.53,15.56-.32,7.01-2.51,11.49-6.86,13.5-13.07,2.01-6.2,1.93-15.19-.25-26.98l-3.94-20.73c-2.51-13.86-2.08-24.9,1.25-33.11,3.34-8.22,9.78-14.04,19.37-17.49,7.52-2.7,14.84-3.06,21.99-1.09,7.12,1.96,13.57,5.97,19.32,12.01s10.32,13.8,13.72,23.25c3.45,9.58,5.26,19.56,5.49,29.92.22,10.38-1.21,20.43-4.3,30.16l-14.71-4.35c5.91-18.94,6.07-36.17.49-51.71-2.33-6.47-5.37-11.81-9.13-16.01-3.78-4.2-7.95-7.02-12.47-8.46-4.54-1.43-9.2-1.3-13.99.43-6.34,2.27-10.43,6.16-12.27,11.64-1.84,5.47-1.75,13.41.22,23.81l3.87,20.54c2.89,15.76,2.6,28.07-.87,36.92-3.47,8.85-10.52,15.18-21.13,19-7.9,2.83-15.72,3.16-23.44.96-7.72-2.19-14.73-6.59-20.96-13.19-6.25-6.6-11.22-15.02-14.89-25.24Z"/>
        <path class="cls-1" d="M2034.11,957.67c-1.5-10.34-1.03-20.25,1.41-29.71,2.44-9.46,6.56-18.04,12.31-25.77,5.75-7.71,12.81-14.09,21.18-19.13,8.37-5.05,17.73-8.32,28.07-9.82,10.34-1.51,20.26-1.04,29.71,1.41,9.47,2.44,18.07,6.54,25.77,12.3,7.72,5.75,14.1,12.82,19.14,21.19,5.04,8.37,8.33,17.73,9.83,28.07,1.48,10.21,1.01,20.04-1.46,29.51-2.44,9.46-6.54,18.04-12.29,25.77-5.75,7.71-12.83,14.09-21.2,19.13-8.37,5.05-17.73,8.32-28.07,9.83-10.34,1.5-20.24,1.03-29.71-1.42-9.45-2.44-18.04-6.54-25.77-12.3-7.7-5.75-14.08-12.82-19.14-21.19-5.04-8.37-8.28-17.66-9.78-27.87ZM2048.62,955.57c1.19,8.16,3.78,15.5,7.79,22.01,3.99,6.5,9.07,11.99,15.2,16.44,6.13,4.46,13.03,7.62,20.69,9.5,7.63,1.88,15.6,2.22,23.91,1.01,8.44-1.23,16.01-3.83,22.72-7.79,6.74-3.97,12.4-8.97,17.02-14.99,4.61-6.02,7.9-12.72,9.9-20.1,1.97-7.38,2.37-15.15,1.19-23.32-1.19-8.16-3.78-15.54-7.79-22.11-4.03-6.57-9.11-12.09-15.25-16.54-6.13-4.47-12.99-7.63-20.55-9.52-7.59-1.89-15.58-2.22-24.02-1-8.31,1.21-15.85,3.81-22.63,7.78-6.81,3.97-12.49,8.98-17.1,15-4.61,6.02-7.93,12.75-9.9,20.21-1.97,7.44-2.35,15.25-1.16,23.42ZM2197.59,920.54l26.49,15.75,2.82,19.39-27.36-21.86-1.95-13.28Z"/>
        <path class="cls-1" d="M2047.43,1100.47l144.23,7.77-5.57,103.22-13.99-.75,4.7-87.36-51.52-2.78-3.09,57.28-13.79-.75,3.09-57.27-64.9-3.5.85-15.86Z"/>
        <path class="cls-1" d="M2029.99,1271.59l141.72,27.84-3.04,15.59-141.74-27.85,3.07-15.58Z"/>
        <path class="cls-1" d="M1984.56,1426.51c3.54-9.83,8.64-18.37,15.29-25.61,6.65-7.25,14.35-12.95,23.08-17.1,8.75-4.15,18-6.47,27.76-6.96,9.76-.49,19.54,1.04,29.37,4.59,9.83,3.56,18.34,8.64,25.52,15.27,7.19,6.63,12.81,14.33,16.88,23.12,4.05,8.78,6.34,18.08,6.81,27.91.45,9.83-1.07,19.65-4.63,29.49-2.57,7.11-5.93,13.62-10.03,19.52-4.12,5.9-8.84,11.06-14.17,15.49-5.33,4.43-11.19,7.98-17.55,10.66l-6.92-13.69c8.02-3.1,15.07-7.94,21.16-14.51,6.11-6.56,10.7-14.05,13.72-22.46,2.87-7.89,4.07-15.72,3.67-23.47-.4-7.76-2.28-15.04-5.57-21.87-3.31-6.83-7.86-12.86-13.63-18.1-5.8-5.24-12.69-9.31-20.71-12.21-7.9-2.85-15.78-4.13-23.64-3.83-7.86.3-15.25,2.05-22.19,5.25-6.94,3.19-13.05,7.67-18.36,13.43-5.31,5.76-9.38,12.58-12.22,20.47-3.04,8.41-4.3,17.03-3.76,25.85.54,8.83,2.78,16.88,6.72,24.16l-13.59,6.06c-3.02-6.21-5.19-12.74-6.51-19.58-1.34-6.85-1.7-13.82-1.1-20.92.58-7.1,2.13-14.07,4.61-20.93Z"/>
        <path class="cls-1" d="M1901.57,1595.11c5.53-8.88,12.27-16.14,20.24-21.79,7.97-5.65,16.66-9.56,26.04-11.75,9.38-2.18,18.87-2.5,28.52-.95,9.65,1.54,18.92,5.08,27.81,10.61,8.87,5.52,16.12,12.26,21.78,20.24,5.64,7.97,9.56,16.65,11.75,26.03,2.17,9.37,2.51,18.88.96,28.53-1.57,9.65-5.08,18.91-10.61,27.78-5.46,8.77-12.16,15.96-20.13,21.62-7.97,5.65-16.66,9.57-26.04,11.75-9.38,2.19-18.9,2.51-28.55.96-9.65-1.56-18.9-5.08-27.78-10.61-8.87-5.52-16.14-12.27-21.78-20.24-5.64-7.97-9.56-16.65-11.75-26.03-2.19-9.37-2.51-18.88-.96-28.53,1.57-9.65,5.06-18.85,10.5-27.62ZM1914.02,1602.86c-4.37,7.01-7.12,14.28-8.26,21.84-1.12,7.56-.78,15.01,1.03,22.38,1.81,7.37,5.04,14.24,9.67,20.6,4.61,6.36,10.5,11.77,17.62,16.2,7.23,4.5,14.71,7.41,22.41,8.71,7.68,1.3,15.25,1.14,22.66-.48,7.41-1.63,14.24-4.62,20.53-8.98,6.27-4.35,11.6-10.04,15.94-17.05,4.37-7.01,7.14-14.32,8.31-21.93,1.16-7.61.85-15.11-.96-22.47-1.81-7.38-5.01-14.22-9.58-20.54-4.57-6.34-10.48-11.74-17.71-16.25-7.12-4.43-14.57-7.32-22.32-8.65-7.75-1.34-15.34-1.2-22.75.43-7.41,1.62-14.26,4.65-20.57,9.07-6.31,4.41-11.66,10.13-16.01,17.14Z"/>
      </g>
      <g>
        <path class="cls-1" d="M1599.69,1063.35c-3.28-3.07-6.78-5.88-10.43-8.37-4.66-3.18-10.7-2.97-15.04.11-.95,6.3-2.17,12.29-3.55,18.01-3.33,14.35-7.84,27.06-13.61,38.39-17.16,34.1-48.35,61.96-87.91,78.53-4.87,2.06-10.01,3.97-15.31,5.82-18.53,6.25-39.19,10.86-60.1,12.6-18.14,1.5-36.19.71-52.59-3.08-6.57-1.52-13.21,1.98-15.63,8.56-2.67,7.3,1.54,15.5,9.38,17.35,13.34,3.07,27.38,4.45,41.46,4.45,24.68,0,49.57-4.18,71.65-10.43,2.38,18.96,4.13,38.34,1.11,56.61-3.66,21.82-14.67,39.93-29.5,48.45-13.24,7.57-29.71,8.63-47.18,9.8-8.47.53-17.21,1.11-25.89,2.44-14.24,2.23-27.96,6.46-40.78,12.66,5.4-17.11,8-35.06,7.63-52.96-.05-3.39-.26-6.67-.58-9.85-1.38-12.97-4.87-24.25-9.9-34.21-10.27-20.55-26.9-35.69-44.33-48.98-4.82-3.65-11.54-3.6-16.31.21-4.72,3.76-6.3,10.27-3.76,15.83,8.53,18.85,7.52,40.93,3.39,61.48-1.06-1.54-2.12-3.12-3.12-4.71-5.61-8.53-11.01-17.9-17.69-30.5-4.66-8.95-9.43-18.43-11.71-28.07-6.78-28.86-1.91-64.87,12.13-89.65,1.64-2.91,2.07-6.25,1.43-9.32-.59-2.7-2.02-5.24-4.24-7.2-.64-.53-1.27-1.01-1.96-1.43-4.55-2.7-10.38-2.44-14.78.85-38.13,28.86-60.1,65.77-65.29,109.67-12.18,103.32,73.24,208.54,76.89,212.94,2.54,3.12,6.35,4.82,10.22,4.82,1.43,0,2.86-.21,4.29-.69,19.11-6.38,35.13-17.98,48.51-32.78,1.01-1.11,1.96-2.22,2.91-3.34,18.22-20.33,44.11-34.42,71.07-38.6,7.52-1.17,15.36-1.64,23.62-2.17,19.7-1.27,40.09-2.6,58.62-13.29,21.98-12.6,37.44-37.07,42.42-67.04,3.92-23.72,1.32-46.97-1.59-69.48,1.96-.79,3.87-1.54,5.72-2.33,45.38-19.01,81.39-51.31,101.36-91.03,4.4-8.74,8.15-18.11,11.28-28.17,12.29,18.69,16.73,43.05,18.11,62.75,5.77,82.4-25.84,166.23-84.57,224.32-11.39,11.23-20.66,18.33-30.14,23.09-5.39,2.71-8.14,8.67-6.99,14.59,2.34,12,2.54,24.25.8,36.67-.05.69-.16,1.32-.27,2.01-5.3,34.47-25.47,66.83-55.71,85.84-20.92,13.19-46.45,18.27-70.86,15.73-23.3-2.38-45.65-11.65-62.12-27.43-5.3-5.03-13.66-4.82-18.75.42-5.03,5.3-4.87,13.72.42,18.75,18.85,18.06,43.26,29.39,69,33.63,9.32,26.74-2.22,65.29-25.53,81.29-23.3,15.99-56.5,18.27-86.16,6.36-1.91-.74-3.81-1.54-5.67-2.44-4.61-2.17-8.95-4.61-12.98-7.2-6.2-4.08-11.75-8.69-16.52-13.77-8.52-9.05-15.19-20.34-19.22-32.51-2.28-6.94-9.74-10.75-16.68-8.42-6.99,2.28-10.75,9.74-8.47,16.68,5.24,15.89,13.93,30.56,25.1,42.42,3.76,4.03,7.89,7.73,12.29,11.28-15.04,10.7-29.71,22.82-42.52,37.39-17.95,20.49-30.72,44.06-40.56,68.58-.64,1.59-1.27,3.18-1.85,4.76v-311.8s1.01-722.74.95-724.91c-.16-3.07-.53-6.46-1.27-10.01-1.85-8.9-5.93-17.85-12.02-26.48-22.99-32.99-74.25-60.79-135.3-59.15-75.89,1.91-115.5,56.98-129,84.62-26.21-5.4-56.24,2.7-78.27,21.98-21.34,18.8-35.9,47.45-40.88,80.71-.53,3.71-.95,6.99-1.17,9.85-18.48,5.03-36.06,13.24-51.52,24.36-31.88,22.82-55.13,57.88-63.71,96.11-5.24,23.19-5.72,48.93-1.48,78.59.48,3.23.95,6.41,1.54,9.53-21.29,19.96-33.89,51.68-36.8,92.73-6.36,89.97,28.23,181.59,92.36,244.97,7.31,7.26,16.79,15.99,28.33,23.14-6.52,54.97,20.71,112.53,68.47,142.66,20.71,13.08,44.54,19.81,68.47,20.55-7.31,36.38,8.21,80.49,38.44,101.25,17.9,12.28,39.98,18.48,62.86,18.48,18.59,0,37.6-4.13,55.29-12.44.21-.11.37-.21.58-.32,16.84,11.38,33.52,24.15,47.18,39.72,9.61,10.94,17.64,23.2,24.43,36.07,6.86,13.01,12.48,26.64,17.36,40.51,4.85,13.76,8.97,27.76,12.86,41.81,1.38,5,2.71,10.01,3.99,15.03.66,2.56,1.3,5.11,1.94,7.67.58,2.3,1,4.5,2.4,6.47,2.41,3.41,6.59,5.48,10.73,5.48.32,0,.64,0,.95-.05.32.05.58.05.9.05,3.92,0,7.81-1.86,10.32-4.87,2.67-3.2,3.32-8.31,4.19-12.27,3.69-16.84,9.08-33.19,14.13-49.65,3.67-11.96,8.43-23.57,13.32-35.06,5.97-13.4,13.01-26.37,21.55-38.31,3.18-4.45,6.56-8.78,10.2-12.87,13.66-15.57,30.34-28.33,47.18-39.72.21.11.37.21.58.32,17.69,8.31,36.7,12.44,55.29,12.44,22.88,0,44.96-6.2,62.86-18.48,30.24-20.76,45.75-64.87,38.44-101.25,23.94-.74,47.77-7.47,68.47-20.55,47.77-30.13,74.99-87.69,68.47-142.66,11.54-7.15,21.02-15.89,28.33-23.14,64.13-63.39,98.71-155,92.36-244.97-2.86-41.09-15.52-72.81-36.81-92.78ZM1286.99,1305.46c0,2.07-.05,4.18-.16,6.25-1.96,23.25-6.57,39.61-13.93,54.65-8.05,16.31-19.06,30.19-32.09,40.67-3.07,2.44-6.25,4.71-9.53,6.78-.32.16-.85.42-1.54.74-.37.16-.85.37-1.38.58-18.43-24.84-74.56-107.92-65.35-185.66,2.17-18.8,8.16-36.06,17.85-51.74-1.91,17.53-1.11,35.48,2.75,51.79,2.97,12.71,8.58,23.94,14.09,34.37,3.02,5.77,5.82,10.91,8.58,15.62,0,.05.05.11.11.16,3.5,6.2,6.83,11.65,10.22,16.89,3.55,5.45,7.31,10.64,10.17,14.56,1.9,2.6,3.87,5.14,5.93,7.63.21.32.9,1.06,1.8,2.01.32.32.64.64.95,1.01.37.37.74.69,1,1.06,1.64,2.86,4.29,5.08,7.68,6.09,6.93,2.06,14.14-1.64,16.31-8.47.11-.11.11-.26.16-.37h.05c2.7-9,5.35-18.8,7.41-29.02,2.07-10.7,3.5-21.87,3.44-33.15,5.61,7.52,9.9,15.57,12.5,24.78,1.8,6.14,2.86,12.81,2.97,20.12v2.65ZM1087.55,1789.95c-.58-1.59-1.22-3.18-1.85-4.77-9.9-24.46-22.61-48.08-40.56-68.52-12.76-14.51-27.49-26.69-42.53-37.39,4.45-3.55,8.53-7.25,12.34-11.28,11.12-11.86,19.81-26.53,25.05-42.42,2.28-6.94-1.48-14.41-8.42-16.68-6.94-2.33-14.46,1.48-16.73,8.42-4.03,12.18-10.7,23.46-19.22,32.51-4.76,5.08-10.33,9.69-16.52,13.77-4.03,2.6-8.37,5.03-12.97,7.2-1.85.9-3.76,1.7-5.67,2.44-29.66,11.91-62.86,9.64-86.16-6.36-23.3-15.99-34.85-54.54-25.52-81.29,25.74-4.24,50.15-15.57,69-33.63,5.3-5.03,5.46-13.45.42-18.75-5.03-5.24-13.45-5.46-18.75-.42-16.47,15.78-38.82,25.05-62.17,27.43-24.42,2.54-49.88-2.54-70.75-15.73-30.29-19.01-50.47-51.37-55.76-85.84-2.01-12.87-1.9-26.06.58-38.92,1.17-5.83-1.75-11.7-7.04-14.35-9.48-4.77-18.75-11.86-30.13-23.09-58.73-58.09-90.34-141.92-84.57-224.32,1.38-19.7,5.82-44.11,18.06-62.81,3.13,10.11,6.94,19.49,11.33,28.23,19.96,39.72,55.97,72.02,101.36,91.03,1.85.79,3.76,1.54,5.72,2.33-2.81,21.66-5.51,45.81-1.59,69.48,4.98,29.97,20.44,54.44,42.42,67.04,18.53,10.7,38.92,12.02,58.62,13.29,8.26.53,16.1,1.01,23.62,2.17,26.96,4.18,52.85,18.27,71.07,38.6.95,1.11,1.9,2.22,2.91,3.34,7.89,9.06,17.74,20.33,32.94,22.82.74.11,1.43.16,2.12.16,6.41,0,12.02-4.61,13.08-11.12,1.16-7.2-3.76-14.03-10.96-15.2-5.77-.95-11.33-7.31-17.21-14.09-1.06-1.22-2.12-2.38-3.12-3.55-22.56-25.21-53.38-41.94-86.79-47.13-8.69-1.32-17.42-1.91-25.9-2.44-17.48-1.17-33.94-2.22-47.13-9.8-14.88-8.53-25.9-26.64-29.55-48.45-3.02-18.32-1.27-37.65,1.11-56.61,22.13,6.25,46.97,10.43,71.65,10.43,14.09,0,28.12-1.38,41.52-4.45,2.22,32.73,12.13,63.65,50.15,81.5,12.39,5.77,27.06,9.32,41.78,9.32,21.23,0,42.52-7.36,57.3-26,4.56-5.77,3.55-14.09-2.17-18.59-5.72-4.55-14.09-3.6-18.59,2.17-16.1,20.34-46.07,18.96-67.09,9.11-27.33-12.81-34.21-34.21-35.32-66.41,1.27-.58,2.54-1.16,3.76-1.8,31.56-15.94,68.42-65.88,68.63-106.34.1-23.04-11.28-41.62-32.09-52.37-15.36-7.94-35.06-8.16-54.07-.64-11.7,4.61-22.14,11.6-31.51,18.59-18.75-22.14-21.4-57.93-4.5-81.71,8.58-12.18,20.39-20.33,33.04-25.79,24.3-10.43,51.79-10.8,65.88-10.06,16.21.8,28.76,3.02,39.45,7.04,22.61,8.53,40.93,27.06,49.09,49.62,2.49,6.88,10.06,10.43,16.95,7.94,6.88-2.49,10.43-10.06,7.94-16.95-10.75-29.76-34.9-54.23-64.66-65.4-13.4-4.98-28.44-7.78-47.45-8.74-23.67-1.16-45.49,1.43-64.45,7.41-13.61-24.31-19.75-52.64-17.58-80.39,1.9-24.15,13.45-56.24,39.5-67.15,6.78-2.86,9.96-10.59,7.1-17.37-2.81-6.72-10.59-9.9-17.32-7.1-37.01,15.52-53.06,56.4-55.65,89.5-2.54,32.09,4.34,64.71,19.43,93.04-13.4,7.52-24.52,17.32-32.89,29.07-26.96,37.97-19.33,95.11,16.63,124.71,4.77,3.97,11.65,4.08,16.52.26,10.86-8.42,22.03-17.16,34.21-21.92,11.91-4.71,23.62-4.87,32.2-.48,12.18,6.3,17.79,15.41,17.74,28.76-.16,29.92-29.87,70.54-54.07,82.77-3.6,1.8-7.36,3.44-11.28,4.77-37.07,13.24-86.16,7.52-125.56-5.88-5.3-1.8-10.43-3.71-15.36-5.77-39.56-16.58-70.75-44.43-87.91-78.53-5.77-11.33-10.28-24.04-13.61-38.39-1.38-5.72-2.59-11.7-3.55-18.01-.32-1.64-.53-3.28-.8-4.93-3.81-26.48-3.44-49.04,1.06-69.05,7.26-31.99,26.64-61.32,53.33-80.39,13.45-9.64,28.75-16.73,44.85-20.86,4.92-1.32,9.85-2.33,14.88-3.02,11.12-1.64,22.4-1.9,33.52-.74,7.26.74,13.77-4.5,14.56-11.75.74-7.26-4.5-13.77-11.76-14.56-10.85-1.17-21.87-1.17-32.72,0,0-.32.05-.64.11-.9,4.08-27.06,15.52-50.04,32.2-64.71,18.32-16.05,43.9-21.5,63.6-13.5,3.6,1.48,7.68,1.27,11.12-.53,3.33-1.75,5.72-4.77,6.67-8.37.95-2.75,28.17-75.62,109.09-77.63,30.15-.8,61.53,7.23,87.05,23.46,16.33,10.38,28.71,22.92,32.38,42.54,3.95,21.07,1.04,44.47,1.04,65.86,0,.29-.19,1.51,0,1.75-11.17-13.45-24.94-25.26-42.21-32.04-20.44-8.05-44.69-7.84-63.34.58-14.51,6.51-24.89,17.48-30.08,31.72-5.46,14.93-3.39,40.72,8.42,55.34,6.14,7.63,14.41,11.65,23.57,11.65,1.48,0,3.02-.11,4.5-.32,7.25-1.01,12.29-7.68,11.28-14.93-1.01-7.26-7.68-12.34-14.93-11.28-1.32.16-2.28.16-3.81-1.8-5.61-6.88-6.51-23.09-4.18-29.6,2.75-7.47,8.16-13.08,16.1-16.63,12.18-5.51,28.97-5.51,42.79-.11,23.99,9.43,40.3,33.89,51.9,55.6.64,1.17,1.27,2.33,1.85,3.5v920.53Z"/>
        <path class="cls-1" d="M1562.41,693.02c-8.21,0-14.83,6.62-14.83,14.83s6.62,14.83,14.83,14.83,14.83-6.62,14.83-14.83-6.67-14.83-14.83-14.83Z"/>
        <path class="cls-1" d="M1481.92,972.1c4.71-3.81,6.25-10.33,3.7-15.83-2.49-5.51-8.47-8.63-14.46-7.52-30.87,5.77-62.12,15.62-83.67,46.55-2.54,3.65-4.93,7.57-7.2,11.81-4.18,7.94-7.79,16.26-10.59,24.78-3.92,11.7-6.52,23.83-7.79,36.12-.42,4.77-.69,9.53-.74,14.3-.11,8.68.53,17.21,1.85,25.58,2.81,17.85,8.79,34.63,17.74,49.57,2.38,3.97,8.63,10.54,12.13,14.14,2.54,2.59,5.98,3.97,9.48,3.97,1.8,0,3.6-.37,5.3-1.11,5.24-2.33,128.95-57.72,164.64-155.48,1.91-5.24,3.55-10.49,4.82-15.78,7.2-28.17,6.04-56.93-3.34-85.89-2.76-8.53-6.2-17.05-10.38-25.63-2.81-5.67-9.16-8.58-15.2-6.99-1.17.32-2.28.74-3.28,1.38-4.24,2.38-6.88,7.04-6.67,12.07.27,5.51.05,11.23-.69,17.11-2.8,24.25-13.5,50.15-28.86,68.42-6.36,7.57-14.93,13.93-23.14,19.75-11.54,8.21-20.65,14.19-29.5,19.33-1.64.9-3.28,1.85-4.92,2.7,5.61-20.18,14.56-40.3,30.77-53.33ZM1453.69,1054.02c4.61-2.33,10.11-5.19,15.62-8.42,9.48-5.46,19.54-12.02,31.62-20.65,9.59-6.83,19.7-14.35,28.07-24.31,10.8-12.87,19.59-28.44,25.79-45.01,1.59,18.32-.85,36.43-7.31,54.17-26.8,73.4-114.44,122.43-142.08,136.36-.95-1.11-1.64-1.96-1.91-2.38-10.33-17.21-15.83-37.86-15.83-59.68v-1.54c0-2.49.11-4.98.27-7.52.9-13.34,3.76-26.58,8.42-39.13,2.07-5.61,4.55-11.12,7.36-16.42,8.52-16.04,19.96-26.21,34.05-33.1-4.98,9.8-8.74,20.12-11.65,30.4-2.91,10.27-4.98,20.44-6.67,29.97-1.27,7.2,3.55,14.09,10.75,15.36,3.44.58,6.83-.21,9.58-2.01.85-.32,1.91-.69,2.7-.95,1.22-.48,2.12-.79,2.49-1.01,2.96-1.27,5.88-2.65,8.74-4.13Z"/>
        <path class="cls-1" d="M1219.68,1524.91c9.64,0,19.22-1.22,28.54-3.65,31.4-8.21,58.84-30.56,74.4-59.1,14.46,18.32,35.64,31.3,58.99,35.16,33.36,5.46,68.47-8.15,89.44-34.74,1.43-1.8,2.33-3.92,2.7-6.04.11-.69.16-1.38.16-2.06,0-3.92-1.75-7.84-5.08-10.48-5.72-4.5-14.03-3.55-18.59,2.22-14.83,18.8-40.67,28.86-64.34,24.94-23.67-3.87-44.96-21.66-52.96-44.22-1.96-5.51-7.31-9.11-13.19-8.79-5.88.32-10.8,4.4-12.18,10.11-7.68,31.99-34.26,59.1-66.09,67.41-31.83,8.31-68.21-2.33-90.56-26.48-4.98-5.35-13.35-5.67-18.75-.69-2.81,2.6-4.24,6.14-4.24,9.69,0,3.23,1.17,6.46,3.55,9,22.24,24.04,55.34,37.7,88.17,37.7Z"/>
        <path class="cls-1" d="M1048.79,1469.2c-22.35,24.15-58.73,34.79-90.56,26.48-31.83-8.31-58.41-35.43-66.09-67.41-1.38-5.72-6.3-9.8-12.18-10.11-5.77-.48-11.22,3.23-13.18,8.79-8,22.56-29.28,40.35-52.96,44.22-23.67,3.92-49.51-6.14-64.34-24.94-4.56-5.77-12.87-6.72-18.59-2.22-3.92,3.12-5.67,7.99-4.92,12.55.37,2.12,1.27,4.24,2.7,6.04,20.97,26.58,56.03,40.19,89.44,34.74,23.35-3.87,44.54-16.84,58.99-35.16,15.57,28.54,43,50.89,74.4,59.1,9.32,2.44,18.91,3.65,28.54,3.65,32.83,0,65.93-13.66,88.17-37.7,2.38-2.54,3.55-5.77,3.55-9,0-3.55-1.43-7.1-4.24-9.69-5.4-4.98-13.77-4.66-18.75.69Z"/>
        <path class="cls-1" d="M1654.34,730.47c-38.7-69.98-86.91-89.45-120.79-93.42-41.41-4.82-82.4,10.96-111.9,32.25-5.61-49.83-39.29-99.98-85.57-124.6-31.14-16.58-65.08-21.71-97.86-26.69-20.23-3.07-39.35-5.98-57.88-11.33-32.25-9.37-89.34-34.74-98.65-70.59-1.8-6.83-8.31-11.12-15.31-10.12-6.99,1.06-11.97,7.15-11.7,14.25,2.49,52.21,8.26,120.37,30.87,184.29,9,25.58,20.55,49.41,34.16,70.91,4.71,7.52,9.69,14.78,14.88,21.66,16.9,22.4,36.22,41.52,57.43,56.89-6.88,11.4-12.89,22.75-18.14,33.88-27.91,58.68-35.75,113.96-23.35,164.96,1.43,5.88,3.12,11.81,5.08,17.69,3.6,10.91,8.05,21.71,13.24,32.41,15.36,31.83,37.17,62.12,62.49,87.8,1.7,1.69,3.39,3.39,5.14,5.08,11.01,10.85,22.66,20.71,34.69,29.44,23.83,17.37,49.25,30.4,74.46,37.07,13.06,3.48,22.34-12.54,12.81-22.13-23.83-23.99-39.29-45.59-48.72-67.99-1.17-2.75-2.17-5.51-3.07-8.31-3.02-9.11-4.66-18.43-5.08-27.75-1.27-29.44,9.69-58.73,30.77-80.49,5.19-5.45,11.07-10.38,17.53-14.77,1.43-.95,2.91-1.91,4.39-2.86,15.52-9.9,32.41-17.74,50.15-26,48.16-22.42,94.87-49.23,127.42-92.44,10.75-14.26,19.64-29.88,30.78-43.84,18.24-22.86,46.33-38.39,75.4-42.87.28-.05.44-.04.69-.08,1,.56,103.93,29.14,154.25,43.51,50.33,14.32,100.72,28.84,151.73,40.58-98.23-31.89-192.77-72.08-290.31-106.36ZM1580.36,745.61c-11.41,6.24-22.17,14.86-31.39,23.96-9.52,9.39-16.21,23.8-24.05,34.69-16.85,23.41-35.65,45.83-58.82,63.26-25.31,19.04-54.84,31.46-83.39,45.17-26.29,12.63-57.56,27.6-76.06,51.08-18.71,23.75-30.55,52.77-31.52,83.19-.13,3.99-.08,7.99.16,11.98.48,9,1.91,18.06,4.34,26.95,1.48,5.56,3.39,11.07,5.67,16.52,4.56,10.8,10.22,21.39,17.26,31.99-13.29-8.26-26.32-18.16-38.66-29.34-6.99-6.25-13.77-12.92-20.23-19.96-24.89-26.9-45.65-58.52-58.41-90.77-3.71-9.27-6.73-18.59-9-27.86-.05-.21-.11-.48-.16-.69-11.6-48.46-2.86-100.25,26.95-157.44,3.97-7.73,8.37-15.52,13.13-23.46,1.59-2.6,3.23-5.24,4.87-7.89l6.99-11.12-11.07-7.1c-22.4-14.3-42.79-33.42-60.37-56.5-5.3-6.94-10.38-14.24-15.09-21.92-12.29-19.59-22.72-41.3-31.03-64.71-15.25-43.16-22.45-88.81-26.21-129.69,31.24,28.17,76.79,42.68,88.7,46.12,20.18,5.88,41.09,9,61.27,12.07,31.99,4.87,62.22,9.43,89.39,23.88,43.26,23.04,74.35,74.67,72.28,120.16-.58,13.38-1.41,22.38-3.94,32.3-1.7,6.68,1.88,13.58,8.38,15.87,7.27,2.56,15.28-1.58,17.2-9.04,2.02-7.86,3.16-15.23,3.88-23.5,24.31-23.88,66.57-45.38,109.09-40.46,36.01,4.18,66.99,26.32,92.3,65.88-19.81,5.46-42.15,16.21-42.47,16.36Z"/>
      </g>
    </g>
  </g>
</svg>