<?xml version="1.0" encoding="UTF-8"?>
<svg id="Capa_2" xmlns="http://www.w3.org/2000/svg" viewBox="0 0 1829.54 1934.38">
  <defs>
    <style>
      .cls-1 {
        fill: #fff;
      }
    </style>
  </defs>
  <g id="IDENTIDAD_4">
    <g>
      <path class="cls-1" d="M1372.92,843.88c-4.35-4.07-8.97-7.78-13.81-11.07-6.17-4.21-14.16-3.93-19.91.14-1.26,8.34-2.87,16.26-4.7,23.83-4.41,18.99-10.37,35.82-18.01,50.82-22.71,45.14-64,82.01-116.36,103.95-6.45,2.73-13.25,5.26-20.26,7.71-24.53,8.27-51.87,14.37-79.56,16.68-24.01,1.99-47.91.94-69.61-4.08-8.69-2.01-17.49,2.62-20.68,11.33-3.53,9.66,2.03,20.51,12.42,22.96,17.66,4.07,36.24,5.89,54.89,5.89,32.66,0,65.61-5.54,94.84-13.81,3.15,25.09,5.47,50.75,1.47,74.93-4.84,28.88-19.42,52.85-39.05,64.14-17.53,10.02-39.32,11.42-62.46,12.97-11.21.7-22.78,1.47-34.27,3.22-18.85,2.95-37.01,8.55-53.98,16.75,7.15-22.64,10.59-46.41,10.1-70.1-.07-4.49-.35-8.83-.77-13.04-1.82-17.17-6.45-32.11-13.11-45.28-13.6-27.2-35.61-47.25-58.67-64.84-6.38-4.84-15.28-4.77-21.59.28-6.24,4.98-8.34,13.6-4.98,20.96,11.29,24.95,9.96,54.18,4.49,81.38-1.4-2.03-2.8-4.14-4.14-6.24-7.43-11.28-14.58-23.69-23.41-40.38-6.17-11.85-12.48-24.39-15.49-37.15-8.97-38.2-2.52-85.87,16.05-118.67,2.17-3.85,2.73-8.27,1.9-12.34-.78-3.57-2.67-6.94-5.61-9.53-.84-.7-1.68-1.33-2.6-1.89-6.03-3.58-13.74-3.23-19.56,1.12-50.47,38.2-79.56,87.06-86.43,145.17-16.12,136.76,96.94,276.04,101.78,281.86,3.37,4.14,8.41,6.38,13.53,6.38,1.89,0,3.78-.28,5.68-.91,27.14-9.45,49.55-26.12,68.06-47.81,24.11-26.92,58.39-45.56,94.07-51.1,9.95-1.54,20.33-2.17,31.26-2.87,26.08-1.68,53.07-3.44,77.6-17.59,29.09-16.68,49.56-49.07,56.15-88.74,5.19-31.4,1.75-62.18-2.1-91.97,2.6-1.05,5.12-2.03,7.57-3.08,60.07-25.16,107.74-67.92,134.16-120.5,5.82-11.57,10.79-23.97,14.93-37.29,16.26,24.74,22.15,56.99,23.98,83.07,7.64,109.07-34.21,220.03-111.95,296.93-15.08,14.87-27.35,24.26-39.9,30.57-7.14,3.59-10.78,11.47-9.25,19.31,3.1,15.88,3.36,32.1,1.06,48.54-.07.91-.21,1.75-.35,2.66-7.01,45.63-33.72,88.46-73.74,113.63-27.69,17.45-61.48,24.18-93.79,20.82-30.84-3.15-60.42-15.42-82.23-36.31-7.01-6.66-18.08-6.38-24.81.56-6.66,7.01-6.45,18.16.56,24.82,24.96,23.9,57.27,38.9,91.34,44.51,12.34,35.4-2.94,86.43-33.79,107.6-30.84,21.17-74.79,24.18-114.05,8.41-2.52-.98-5.04-2.03-7.5-3.23-6.1-2.87-11.85-6.1-17.18-9.53-8.2-5.4-15.56-11.5-21.87-18.23-11.28-11.99-20.11-26.92-25.44-43.04-3.01-9.18-12.9-14.23-22.08-11.15-9.25,3.01-14.23,12.9-11.22,22.08,6.94,21.03,18.43,40.45,33.23,56.15,4.98,5.33,10.44,10.23,16.26,14.93-19.91,14.16-39.32,30.21-56.29,49.49-23.76,27.13-40.66,58.32-53.69,90.78-.84,2.1-1.68,4.21-2.45,6.31v-412.73s1.33-956.68,1.26-959.56c-.21-4.06-.7-8.55-1.68-13.25-2.45-11.78-7.85-23.62-15.91-35.05-30.43-43.67-98.28-80.47-179.1-78.3-100.45,2.52-152.88,75.43-170.76,112.02-34.7-7.15-74.44,3.58-103.6,29.09-28.25,24.88-47.52,62.81-54.11,106.83-.7,4.91-1.26,9.25-1.54,13.04-24.46,6.66-47.74,17.52-68.2,32.24-42.2,30.21-72.97,76.62-84.33,127.23-6.94,30.7-7.57,64.77-1.96,104.02.63,4.28,1.26,8.48,2.03,12.62-28.18,26.43-44.86,68.41-48.72,122.74-8.41,119.09,37.36,240.36,122.25,324.27,9.67,9.6,22.22,21.17,37.5,30.63-8.62,72.76,27.41,148.96,90.63,188.84,27.41,17.31,58.95,26.22,90.64,27.2-9.68,48.16,10.86,106.55,50.89,134.03,23.69,16.26,52.92,24.46,83.2,24.46,24.61,0,49.77-5.47,73.18-16.47.28-.14.49-.28.77-.42,22.29,15.07,44.37,31.96,62.45,52.57,12.72,14.49,23.35,30.71,32.34,47.75,9.08,17.22,16.52,35.27,22.98,53.62,6.42,18.21,11.88,36.74,17.02,55.35,1.83,6.61,3.58,13.25,5.29,19.9.87,3.38,1.72,6.77,2.57,10.16.76,3.05,1.33,5.95,3.18,8.57,3.19,4.51,8.72,7.25,14.2,7.25.42,0,.84,0,1.26-.07.42.07.77.07,1.19.07,5.19,0,10.34-2.46,13.66-6.45,3.53-4.24,4.4-11,5.55-16.25,4.89-22.29,12.03-43.94,18.7-65.72,4.85-15.83,11.15-31.2,17.64-46.41,7.91-17.73,17.22-34.9,28.53-50.71,4.22-5.89,8.69-11.63,13.5-17.04,18.08-20.61,40.16-37.5,62.46-52.57.28.14.49.28.77.42,23.41,11.01,48.58,16.47,73.18,16.47,30.28,0,59.51-8.2,83.2-24.46,40.03-27.48,60.56-85.87,50.89-134.03,31.69-.98,63.23-9.88,90.64-27.2,63.23-39.88,99.26-116.08,90.64-188.84,15.28-9.46,27.83-21.03,37.5-30.63,84.89-83.91,130.66-205.17,122.25-324.27-3.78-54.4-20.54-96.38-48.72-122.81ZM959,1164.36c0,2.73-.07,5.54-.21,8.27-2.6,30.77-8.69,52.43-18.44,72.34-10.65,21.59-25.23,39.96-42.48,53.84-4.07,3.22-8.27,6.24-12.62,8.97-.42.21-1.12.56-2.03.98-.49.21-1.12.49-1.83.77-24.39-32.87-98.7-142.86-86.5-245.76,2.88-24.88,10.8-47.74,23.62-68.49-2.52,23.2-1.47,46.96,3.65,68.56,3.93,16.82,11.35,31.68,18.64,45.49,4,7.64,7.71,14.44,11.36,20.68,0,.07.07.14.14.21,4.63,8.2,9.04,15.42,13.53,22.36,4.7,7.22,9.67,14.09,13.46,19.28,2.52,3.44,5.12,6.8,7.85,10.09.28.42,1.19,1.4,2.38,2.66.42.42.84.84,1.26,1.33.49.49.98.91,1.33,1.4,2.17,3.78,5.68,6.73,10.17,8.06,9.18,2.73,18.71-2.17,21.59-11.22.14-.14.14-.35.21-.49h.07c3.58-11.92,7.08-24.88,9.81-38.41,2.74-14.16,4.63-28.95,4.56-43.88,7.43,9.95,13.11,20.61,16.54,32.81,2.38,8.13,3.79,16.96,3.93,26.63v3.51ZM695.02,1805.68c-.77-2.1-1.61-4.21-2.45-6.31-13.11-32.38-29.93-63.65-53.69-90.7-16.9-19.21-36.38-35.33-56.29-49.49,5.89-4.7,11.29-9.6,16.33-14.93,14.72-15.7,26.22-35.12,33.16-56.15,3.01-9.18-1.96-19.07-11.15-22.08-9.18-3.08-19.13,1.96-22.15,11.15-5.33,16.12-14.16,31.05-25.45,43.04-6.31,6.73-13.67,12.83-21.87,18.23-5.33,3.44-11.08,6.66-17.17,9.53-2.45,1.19-4.98,2.24-7.5,3.23-39.26,15.77-83.21,12.76-114.05-8.41-30.84-21.17-46.13-72.2-33.79-107.6,34.07-5.61,66.38-20.61,91.34-44.51,7.01-6.66,7.22-17.8.56-24.82-6.66-6.94-17.8-7.22-24.82-.56-21.8,20.89-51.38,33.16-82.29,36.31-32.32,3.36-66.03-3.36-93.65-20.82-40.09-25.16-66.8-67.99-73.81-113.63-2.66-17.03-2.52-34.49.77-51.52,1.54-7.71-2.31-15.49-9.32-19-12.55-6.31-24.82-15.7-39.89-30.56-77.74-76.9-119.58-187.86-111.94-296.93,1.82-26.08,7.71-58.39,23.9-83.14,4.14,13.39,9.18,25.8,15,37.36,26.43,52.57,74.09,95.33,134.17,120.5,2.45,1.05,4.98,2.03,7.57,3.08-3.72,28.67-7.29,60.63-2.11,91.97,6.59,39.67,27.06,72.06,56.15,88.74,24.53,14.16,51.52,15.91,77.6,17.59,10.93.7,21.31,1.33,31.26,2.87,35.68,5.54,69.96,24.18,94.07,51.1,1.26,1.47,2.52,2.94,3.86,4.42,10.44,11.99,23.48,26.92,43.6,30.21.98.14,1.89.21,2.81.21,8.48,0,15.91-6.1,17.31-14.72,1.54-9.53-4.98-18.58-14.51-20.12-7.64-1.26-15-9.67-22.78-18.65-1.4-1.61-2.8-3.15-4.14-4.7-29.86-33.37-70.66-55.52-114.89-62.39-11.5-1.75-23.06-2.52-34.28-3.22-23.13-1.54-44.93-2.94-62.39-12.97-19.7-11.29-34.28-35.26-39.11-64.14-4-24.25-1.68-49.84,1.47-74.93,29.3,8.27,62.18,13.81,94.84,13.81,18.65,0,37.22-1.82,54.96-5.89,2.94,43.32,16.05,84.26,66.38,107.88,16.4,7.64,35.82,12.34,55.31,12.34,28.11,0,56.29-9.74,75.84-34.42,6.03-7.64,4.7-18.65-2.87-24.6-7.57-6.03-18.65-4.77-24.61,2.87-21.31,26.92-60.99,25.09-88.81,12.06-36.17-16.96-45.28-45.28-46.75-87.9,1.68-.77,3.37-1.54,4.98-2.38,41.78-21.1,90.56-87.2,90.85-140.76.14-30.49-14.93-55.1-42.48-69.33-20.33-10.51-46.41-10.8-71.57-.84-15.49,6.1-29.3,15.35-41.7,24.6-24.82-29.3-28.32-76.69-5.96-108.16,11.35-16.12,26.99-26.92,43.74-34.14,32.17-13.81,68.56-14.3,87.2-13.32,21.45,1.05,38.06,4,52.22,9.32,29.93,11.29,54.18,35.82,64.98,65.68,3.29,9.11,13.32,13.81,22.43,10.51,9.11-3.3,13.8-13.32,10.51-22.43-14.23-39.39-46.2-71.78-85.59-86.57-17.73-6.59-37.64-10.3-62.81-11.57-31.33-1.54-60.21,1.89-85.31,9.81-18.02-32.17-26.15-69.68-23.27-106.41,2.52-31.97,17.8-74.44,52.29-88.88,8.97-3.79,13.18-14.02,9.39-22.99-3.72-8.9-14.02-13.11-22.92-9.39-48.99,20.54-70.24,74.65-73.67,118.46-3.36,42.48,5.75,85.66,25.73,123.16-17.73,9.95-32.45,22.92-43.53,38.48-35.68,50.26-25.58,125.89,22.01,165.08,6.31,5.26,15.42,5.4,21.87.35,14.37-11.14,29.16-22.71,45.28-29.02,15.77-6.24,31.27-6.45,42.62-.63,16.12,8.34,23.55,20.4,23.48,38.06-.21,39.6-39.54,93.37-71.57,109.56-4.77,2.38-9.74,4.56-14.93,6.31-49.07,17.52-114.05,9.95-166.2-7.78-7.01-2.38-13.81-4.91-20.33-7.64-52.36-21.94-93.65-58.81-116.36-103.95-7.64-15-13.6-31.83-18.02-50.82-1.82-7.57-3.43-15.49-4.69-23.83-.42-2.17-.7-4.35-1.05-6.52-5.05-35.05-4.55-64.91,1.4-91.41,9.6-42.34,35.26-81.17,70.59-106.41,17.8-12.76,38.06-22.15,59.37-27.62,6.52-1.75,13.04-3.09,19.7-4,14.72-2.17,29.65-2.52,44.37-.98,9.6.98,18.23-5.96,19.28-15.56.98-9.6-5.96-18.23-15.56-19.28-14.37-1.54-28.95-1.54-43.32,0,0-.42.07-.84.14-1.19,5.4-35.82,20.54-66.24,42.62-85.66,24.25-21.24,58.11-28.46,84.18-17.88,4.77,1.96,10.16,1.68,14.72-.7,4.41-2.31,7.57-6.31,8.83-11.08,1.26-3.64,37.29-100.1,144.4-102.76,39.91-1.06,81.45,9.58,115.23,31.05,21.61,13.74,38,30.34,42.87,56.31,5.22,27.89,1.37,58.87,1.37,87.18,0,.38-.26,2,0,2.31-14.79-17.8-33.02-33.44-55.87-42.41-27.06-10.65-59.16-10.37-83.84.77-19.21,8.62-32.94,23.13-39.82,41.99-7.22,19.77-4.49,53.9,11.15,73.25,8.13,10.09,19.07,15.42,31.19,15.42,1.96,0,3.99-.14,5.96-.42,9.6-1.33,16.26-10.16,14.93-19.77-1.33-9.6-10.16-16.33-19.77-14.93-1.75.21-3.01.21-5.05-2.38-7.43-9.11-8.62-30.56-5.54-39.18,3.64-9.88,10.8-17.32,21.31-22.01,16.12-7.29,38.34-7.29,56.64-.14,31.75,12.48,53.34,44.86,68.69,73.6.84,1.54,1.68,3.08,2.45,4.63v1218.49Z"/>
      <path class="cls-1" d="M1323.57,353.69c-10.86,0-19.63,8.76-19.63,19.63s8.76,19.63,19.63,19.63,19.63-8.76,19.63-19.63-8.83-19.63-19.63-19.63Z"/>
      <path class="cls-1" d="M1217.03,723.1c6.24-5.05,8.27-13.67,4.9-20.96-3.29-7.29-11.21-11.42-19.14-9.95-40.87,7.64-82.22,20.68-110.75,61.62-3.37,4.84-6.52,10.02-9.53,15.63-5.54,10.51-10.31,21.52-14.02,32.81-5.19,15.49-8.62,31.54-10.31,47.81-.56,6.31-.91,12.62-.98,18.93-.14,11.5.7,22.78,2.45,33.86,3.72,23.62,11.64,45.84,23.48,65.61,3.16,5.26,11.42,13.95,16.05,18.72,3.36,3.43,7.92,5.26,12.55,5.26,2.38,0,4.77-.49,7.01-1.47,6.94-3.08,170.68-76.4,217.93-205.8,2.52-6.94,4.7-13.88,6.38-20.89,9.53-37.29,7.99-75.35-4.42-113.69-3.65-11.29-8.2-22.57-13.74-33.93-3.72-7.5-12.13-11.36-20.12-9.25-1.54.42-3.02.98-4.35,1.82-5.61,3.15-9.11,9.32-8.83,15.98.35,7.29.07,14.86-.91,22.64-3.71,32.1-17.87,66.38-38.2,90.56-8.41,10.03-19.77,18.44-30.63,26.15-15.28,10.87-27.34,18.79-39.04,25.59-2.17,1.19-4.34,2.45-6.52,3.58,7.43-26.71,19.28-53.35,40.73-70.59ZM1179.67,831.54c6.1-3.08,13.39-6.87,20.68-11.14,12.55-7.22,25.87-15.91,41.85-27.34,12.69-9.04,26.08-19,37.15-32.17,14.3-17.03,25.94-37.64,34.14-59.58,2.11,24.26-1.12,48.23-9.67,71.71-35.47,97.16-151.48,162.06-188.07,180.5-1.26-1.47-2.17-2.59-2.52-3.15-13.67-22.78-20.96-50.12-20.96-79v-2.03c0-3.3.14-6.59.35-9.96,1.19-17.66,4.98-35.19,11.15-51.8,2.73-7.43,6.03-14.72,9.75-21.73,11.28-21.24,26.43-34.7,45.07-43.81-6.59,12.97-11.56,26.64-15.42,40.23-3.86,13.6-6.59,27.06-8.83,39.68-1.68,9.53,4.7,18.64,14.23,20.33,4.55.77,9.04-.28,12.69-2.66,1.12-.42,2.52-.91,3.58-1.26,1.61-.63,2.8-1.05,3.29-1.33,3.92-1.68,7.78-3.51,11.57-5.47Z"/>
      <path class="cls-1" d="M869.91,1454.85c12.76,0,25.45-1.61,37.78-4.84,41.57-10.86,77.88-40.45,98.49-78.23,19.13,24.25,47.18,41.43,78.09,46.54,44.16,7.22,90.63-10.79,118.39-45.98,1.89-2.38,3.08-5.19,3.58-7.99.14-.91.21-1.82.21-2.73,0-5.19-2.31-10.37-6.73-13.88-7.57-5.96-18.58-4.7-24.6,2.94-19.63,24.89-53.84,38.2-85.17,33.02-31.33-5.12-59.51-28.67-70.1-58.53-2.59-7.29-9.67-12.05-17.45-11.64-7.78.42-14.3,5.82-16.12,13.39-10.16,42.34-45.35,78.23-87.48,89.23-42.13,11.01-90.29-3.08-119.87-35.05-6.59-7.08-17.67-7.5-24.82-.91-3.72,3.44-5.61,8.13-5.61,12.83,0,4.27,1.55,8.55,4.7,11.92,29.44,31.82,73.25,49.91,116.71,49.91Z"/>
      <path class="cls-1" d="M643.71,1381.1c-29.58,31.97-77.74,46.05-119.87,35.05-42.13-11-77.32-46.89-87.48-89.23-1.83-7.57-8.34-12.97-16.13-13.39-7.64-.63-14.86,4.28-17.45,11.64-10.59,29.86-38.76,53.41-70.1,58.53-31.34,5.19-65.54-8.13-85.17-33.02-6.03-7.64-17.04-8.9-24.61-2.94-5.19,4.13-7.5,10.58-6.52,16.61.49,2.8,1.68,5.61,3.57,7.99,27.76,35.19,74.16,53.2,118.4,45.98,30.91-5.12,58.95-22.29,78.08-46.54,20.61,37.78,56.92,67.36,98.49,78.23,12.34,3.22,25.02,4.84,37.78,4.84,43.46,0,87.27-18.08,116.71-49.91,3.15-3.36,4.7-7.64,4.7-11.92,0-4.7-1.89-9.39-5.61-12.83-7.15-6.59-18.23-6.17-24.81.91Z"/>
      <path class="cls-1" d="M1445.26,403.26c-51.23-92.63-115.05-118.41-159.88-123.66-54.82-6.38-109.07,14.51-148.12,42.69-7.43-65.96-52.01-132.34-113.27-164.94-41.22-21.94-86.15-28.74-129.54-35.33-26.78-4.06-52.08-7.92-76.62-15-42.69-12.41-118.25-45.98-130.59-93.44-2.39-9.04-11.01-14.72-20.26-13.39-9.25,1.4-15.84,9.46-15.49,18.86,3.29,69.12,10.93,159.33,40.87,243.94,11.92,33.86,27.2,65.4,45.21,93.86,6.24,9.96,12.83,19.56,19.69,28.67,22.36,29.65,47.95,54.96,76.02,75.3-9.11,15.09-17.07,30.12-24.01,44.84-36.94,77.67-47.32,150.85-30.91,218.35,1.89,7.78,4.14,15.63,6.73,23.41,4.77,14.44,10.65,28.74,17.53,42.9,20.33,42.13,49.21,82.22,82.71,116.22,2.25,2.24,4.49,4.49,6.8,6.73,14.58,14.37,30,27.41,45.91,38.97,31.54,22.99,65.19,40.24,98.56,49.07,17.29,4.61,29.57-16.6,16.96-29.3-31.54-31.75-52.01-60.35-64.49-90-1.54-3.64-2.88-7.29-4.07-11.01-4-12.06-6.17-24.4-6.73-36.73-1.68-38.97,12.83-77.74,40.73-106.55,6.87-7.22,14.65-13.74,23.2-19.56,1.89-1.26,3.85-2.52,5.82-3.78,20.54-13.11,42.9-23.48,66.38-34.42,63.75-29.68,125.57-65.17,168.66-122.36,14.22-18.88,25.99-39.55,40.74-58.03,24.14-30.27,61.32-50.81,99.8-56.75.37-.06.59-.06.92-.1,1.32.74,137.57,38.58,204.19,57.6,66.62,18.96,133.32,38.17,200.84,53.72-130.02-42.21-255.17-95.42-384.29-140.79ZM1347.34,423.3c-15.11,8.26-29.34,19.67-41.55,31.71-12.6,12.42-21.45,31.5-31.84,45.92-22.31,30.99-47.19,60.67-77.86,83.74-33.5,25.21-72.6,41.64-110.39,59.79-34.8,16.71-76.2,36.54-100.68,67.62-24.76,31.44-40.43,69.85-41.73,110.12-.17,5.29-.1,10.58.21,15.86.63,11.92,2.52,23.9,5.75,35.68,1.96,7.36,4.49,14.65,7.5,21.87,6.03,14.3,13.53,28.32,22.85,42.34-17.6-10.93-34.84-24.04-51.17-38.83-9.25-8.27-18.22-17.1-26.78-26.43-32.94-35.61-60.42-77.46-77.31-120.15-4.91-12.27-8.9-24.6-11.92-36.87-.07-.28-.14-.63-.21-.91-15.35-64.14-3.78-132.69,35.68-208.4,5.26-10.24,11.08-20.54,17.38-31.05,2.1-3.44,4.27-6.94,6.45-10.45l9.26-14.72-14.65-9.39c-29.65-18.93-56.64-44.23-79.91-74.79-7.01-9.18-13.74-18.85-19.98-29.02-16.26-25.94-30.07-54.67-41.08-85.66-20.19-57.13-29.72-117.55-34.7-171.67,41.36,37.29,101.64,56.5,117.41,61.05,26.71,7.78,54.4,11.92,81.1,15.98,42.34,6.45,82.36,12.48,118.32,31.61,57.27,30.49,98.42,98.84,95.68,159.05-.77,17.71-1.87,29.62-5.22,42.75-2.25,8.84,2.49,17.97,11.1,21.01,9.62,3.39,20.23-2.09,22.77-11.97,2.68-10.41,4.18-20.16,5.14-31.11,32.18-31.61,88.11-60.07,144.4-53.55,47.67,5.54,88.67,34.84,122.18,87.2-26.22,7.22-55.8,21.45-56.22,21.66Z"/>
    </g>
  </g>
</svg>